<?xml version="1.0" encoding="utf-8"?>
<!-- Generator: Adobe Illustrator 16.0.0, SVG Export Plug-In . SVG Version: 6.00 Build 0)  -->
<!DOCTYPE svg PUBLIC "-//W3C//DTD SVG 1.1//EN" "http://www.w3.org/Graphics/SVG/1.1/DTD/svg11.dtd">
<svg version="1.1" id="Capa_1" xmlns="http://www.w3.org/2000/svg" xmlns:xlink="http://www.w3.org/1999/xlink" x="0px" y="0px"
	 width="566.929px" height="228px" viewBox="0 0 566.929 228" enable-background="new 0 0 566.929 228" xml:space="preserve">
<path fill="#4E474B" d="M527.053,161.056c-0.612-0.408-1.244-0.715-1.897-0.917c-0.648-0.204-1.306-0.307-1.972-0.307
	c-1.064,0.004-1.994,0.196-2.78,0.573c-0.789,0.378-1.399,0.912-1.832,1.604c-0.433,0.69-0.649,1.51-0.657,2.456
	c0.004,0.594,0.115,1.124,0.322,1.594c0.212,0.472,0.497,0.896,0.852,1.278c0.356,0.377,0.756,0.725,1.2,1.044
	c0.447,0.317,0.905,0.618,1.379,0.898c0.478,0.284,0.936,0.568,1.38,0.849c0.444,0.279,0.844,0.573,1.204,0.878
	c0.357,0.311,0.642,0.641,0.851,1.001c0.21,0.366,0.317,0.769,0.321,1.214c0,0.245-0.057,0.496-0.17,0.75
	c-0.115,0.255-0.284,0.488-0.519,0.709c-0.231,0.216-0.524,0.391-0.877,0.522c-0.356,0.135-0.777,0.203-1.259,0.207
	c-0.857-0.004-1.677-0.22-2.454-0.648c-0.78-0.428-1.489-1.053-2.129-1.871v3.156c0.722,0.547,1.476,0.95,2.269,1.214
	c0.794,0.264,1.655,0.391,2.593,0.391c0.706-0.004,1.349-0.123,1.943-0.354c0.589-0.232,1.104-0.559,1.54-0.979
	c0.433-0.425,0.771-0.921,1.014-1.492c0.238-0.573,0.36-1.201,0.366-1.886c-0.006-0.686-0.11-1.298-0.323-1.827
	c-0.213-0.53-0.493-1.002-0.854-1.408c-0.355-0.411-0.755-0.776-1.201-1.1c-0.444-0.322-0.902-0.618-1.378-0.891
	c-0.476-0.267-0.934-0.53-1.378-0.784c-0.446-0.255-0.844-0.519-1.201-0.79c-0.36-0.271-0.641-0.573-0.852-0.899
	c-0.213-0.322-0.319-0.694-0.323-1.106c0.004-0.412,0.122-0.772,0.356-1.077c0.233-0.312,0.556-0.553,0.967-0.723
	c0.411-0.174,0.887-0.262,1.425-0.262c0.39-0.004,0.807,0.047,1.247,0.156c0.443,0.11,0.901,0.293,1.375,0.56
	c0.476,0.265,0.959,0.628,1.452,1.092V161.056z M497.194,168.741c0.006-0.959,0.174-1.841,0.509-2.647
	c0.335-0.802,0.807-1.501,1.413-2.095c0.606-0.591,1.319-1.053,2.139-1.379c0.818-0.327,1.713-0.492,2.686-0.497
	c0.979,0.005,1.879,0.17,2.701,0.497c0.825,0.326,1.536,0.788,2.143,1.379c0.61,0.594,1.082,1.293,1.417,2.095
	c0.335,0.807,0.505,1.688,0.509,2.647c-0.004,0.955-0.174,1.833-0.509,2.636c-0.335,0.801-0.807,1.502-1.417,2.095
	c-0.606,0.599-1.317,1.057-2.143,1.388c-0.822,0.331-1.723,0.495-2.701,0.5c-0.973-0.005-1.867-0.169-2.686-0.5
	c-0.819-0.331-1.532-0.789-2.139-1.388c-0.606-0.593-1.078-1.294-1.413-2.095C497.368,170.574,497.2,169.696,497.194,168.741
	 M494.623,168.741c0.004,0.946,0.141,1.858,0.421,2.736c0.275,0.875,0.679,1.689,1.205,2.436c0.53,0.747,1.169,1.4,1.926,1.956
	c0.756,0.56,1.612,0.996,2.571,1.307c0.959,0.313,2.007,0.472,3.144,0.476c1.18-0.004,2.256-0.166,3.236-0.476
	c0.977-0.314,1.85-0.752,2.609-1.312c0.765-0.56,1.407-1.218,1.934-1.965c0.526-0.745,0.926-1.556,1.201-2.435
	c0.271-0.873,0.411-1.781,0.411-2.724c0-0.971-0.145-1.899-0.419-2.782c-0.281-0.887-0.688-1.701-1.219-2.443
	c-0.534-0.743-1.179-1.393-1.941-1.938c-0.76-0.552-1.625-0.98-2.588-1.282c-0.969-0.305-2.023-0.459-3.174-0.463
	c-1.129,0.004-2.174,0.162-3.133,0.463c-0.953,0.306-1.814,0.734-2.578,1.29c-0.759,0.552-1.407,1.196-1.947,1.943
	c-0.534,0.742-0.945,1.557-1.23,2.439C494.768,166.85,494.627,167.774,494.623,168.741 M489.686,161.258
	c-0.783-0.331-1.519-0.602-2.2-0.81c-0.681-0.213-1.328-0.365-1.943-0.467c-0.62-0.103-1.223-0.149-1.813-0.149
	c-1.387,0.004-2.659,0.234-3.817,0.688c-1.157,0.449-2.165,1.086-3.011,1.909c-0.854,0.817-1.511,1.785-1.979,2.9
	c-0.47,1.112-0.704,2.333-0.714,3.666c0,0.61,0.082,1.248,0.244,1.905c0.159,0.657,0.407,1.311,0.736,1.955
	c0.331,0.645,0.752,1.257,1.261,1.833c0.509,0.572,1.107,1.081,1.804,1.527c0.691,0.441,1.479,0.793,2.366,1.044
	c0.887,0.254,1.871,0.387,2.957,0.391c0.904-0.004,1.723-0.068,2.462-0.2c0.736-0.128,1.421-0.305,2.045-0.535
	c0.623-0.229,1.216-0.492,1.781-0.793v-2.724c-0.659,0.426-1.323,0.785-2.008,1.073c-0.683,0.293-1.36,0.514-2.045,0.662
	c-0.682,0.149-1.353,0.225-2.006,0.225c-1.049-0.005-2.002-0.164-2.859-0.483c-0.857-0.318-1.601-0.769-2.218-1.354
	c-0.62-0.586-1.1-1.276-1.438-2.084c-0.336-0.805-0.505-1.696-0.511-2.671c0.006-0.959,0.179-1.841,0.522-2.648
	c0.345-0.81,0.828-1.51,1.452-2.107c0.623-0.595,1.353-1.057,2.192-1.387c0.84-0.332,1.761-0.497,2.759-0.502
	c0.664,0,1.321,0.063,1.969,0.191c0.643,0.127,1.296,0.327,1.958,0.594c0.657,0.268,1.346,0.607,2.053,1.022V161.258z
	 M468.586,160.063h-2.495v17.358h2.495V160.063z M450.77,162.199h1.603c0.801,0,1.456,0.106,1.957,0.319
	c0.495,0.207,0.863,0.509,1.1,0.898c0.231,0.391,0.351,0.857,0.354,1.404c0.008,0.365-0.039,0.717-0.145,1.052
	c-0.109,0.341-0.292,0.642-0.546,0.904c-0.261,0.268-0.611,0.476-1.059,0.632c-0.44,0.156-0.996,0.233-1.662,0.237h-1.603V162.199z
	 M448.274,160.063v17.358h2.495v-7.533h1.043c0.255-0.005,0.501,0.021,0.746,0.072c0.248,0.05,0.501,0.147,0.765,0.297
	c0.263,0.151,0.548,0.372,0.852,0.666c0.307,0.288,0.642,0.674,1.01,1.153c0.366,0.479,0.781,1.073,1.234,1.782l2.292,3.563h2.979
	c-0.299-0.411-0.552-0.763-0.772-1.069c-0.218-0.301-0.411-0.571-0.581-0.822c-0.175-0.245-0.341-0.492-0.501-0.733
	c-0.161-0.247-0.331-0.518-0.514-0.811c-0.438-0.722-0.849-1.379-1.238-1.978c-0.396-0.597-0.799-1.132-1.218-1.604
	c-0.424-0.471-0.892-0.883-1.413-1.229c0.934-0.373,1.65-0.925,2.147-1.65c0.499-0.722,0.751-1.591,0.755-2.6
	c-0.004-1.007-0.238-1.871-0.696-2.598c-0.462-0.725-1.117-1.281-1.963-1.671c-0.854-0.391-1.867-0.59-3.043-0.594H448.274z
	 M443.413,160.063h-14.508v2.239h6.006v15.119h2.494v-15.119h6.008V160.063z M424.68,161.258c-0.786-0.331-1.519-0.602-2.201-0.81
	c-0.678-0.213-1.327-0.365-1.943-0.467c-0.618-0.103-1.222-0.149-1.811-0.149c-1.388,0.004-2.661,0.234-3.818,0.688
	c-1.158,0.449-2.164,1.086-3.012,1.909c-0.854,0.817-1.511,1.785-1.979,2.9c-0.47,1.112-0.704,2.333-0.712,3.666
	c0,0.61,0.08,1.248,0.242,1.905s0.407,1.311,0.738,1.955c0.33,0.645,0.751,1.257,1.26,1.833c0.509,0.572,1.107,1.081,1.803,1.527
	c0.692,0.441,1.481,0.793,2.366,1.044c0.887,0.254,1.871,0.387,2.957,0.391c0.904-0.004,1.724-0.068,2.46-0.2
	c0.739-0.128,1.423-0.305,2.047-0.535c0.624-0.229,1.218-0.492,1.779-0.793v-2.724c-0.654,0.426-1.321,0.785-2.006,1.073
	c-0.682,0.293-1.362,0.514-2.044,0.662c-0.683,0.149-1.354,0.225-2.006,0.225c-1.049-0.005-2.002-0.164-2.859-0.483
	c-0.858-0.318-1.599-0.769-2.219-1.354c-0.62-0.586-1.1-1.276-1.438-2.084c-0.335-0.805-0.505-1.696-0.509-2.671
	c0.004-0.959,0.178-1.841,0.521-2.648c0.345-0.81,0.828-1.51,1.452-2.107c0.622-0.595,1.353-1.057,2.193-1.387
	c0.84-0.332,1.76-0.497,2.756-0.502c0.667,0,1.325,0.063,1.971,0.191c0.644,0.127,1.298,0.327,1.959,0.594
	c0.656,0.268,1.345,0.607,2.053,1.022V161.258z M404.546,160.063h-9.85v17.358h10.079v-2.239h-7.584v-5.396h7.101v-2.241h-7.101
	v-5.243h7.354V160.063z M382.226,160.063h-2.495v17.358h10.335v-2.239h-7.84V160.063z M374.411,160.063h-9.852v17.358h10.081v-2.239
	h-7.586v-5.396h7.101v-2.241h-7.101v-5.243h7.356V160.063z M341.588,161.056c-0.61-0.408-1.243-0.715-1.896-0.917
	c-0.649-0.204-1.306-0.307-1.971-0.307c-1.066,0.004-1.996,0.196-2.779,0.573c-0.79,0.378-1.401,0.912-1.835,1.604
	c-0.431,0.69-0.648,1.51-0.656,2.456c0.004,0.594,0.115,1.124,0.323,1.594c0.211,0.472,0.495,0.896,0.852,1.278
	c0.357,0.377,0.757,0.725,1.201,1.044c0.444,0.317,0.902,0.618,1.378,0.898c0.476,0.284,0.934,0.568,1.38,0.849
	c0.444,0.279,0.845,0.573,1.205,0.878c0.356,0.311,0.64,0.641,0.848,1.001c0.213,0.366,0.317,0.769,0.323,1.214
	c0,0.245-0.057,0.496-0.171,0.75c-0.113,0.255-0.283,0.488-0.517,0.709c-0.234,0.216-0.526,0.391-0.879,0.522
	c-0.355,0.135-0.776,0.203-1.26,0.207c-0.857-0.004-1.676-0.22-2.452-0.648c-0.781-0.428-1.489-1.053-2.128-1.871v3.156
	c0.719,0.547,1.476,0.95,2.269,1.214s1.653,0.391,2.593,0.391c0.703-0.004,1.349-0.123,1.941-0.354
	c0.59-0.232,1.103-0.559,1.539-0.979c0.436-0.425,0.774-0.921,1.016-1.492c0.236-0.573,0.359-1.201,0.365-1.886
	c-0.006-0.686-0.111-1.298-0.322-1.827c-0.212-0.53-0.493-1.002-0.854-1.408c-0.356-0.411-0.756-0.776-1.2-1.1
	c-0.445-0.322-0.903-0.618-1.381-0.891c-0.474-0.267-0.932-0.53-1.378-0.784c-0.444-0.255-0.844-0.519-1.2-0.79
	c-0.359-0.271-0.64-0.573-0.853-0.899c-0.212-0.322-0.317-0.694-0.321-1.106c0.004-0.412,0.123-0.772,0.356-1.077
	c0.232-0.312,0.554-0.553,0.967-0.723c0.412-0.174,0.885-0.262,1.425-0.262c0.391-0.004,0.806,0.047,1.248,0.156
	c0.44,0.11,0.898,0.293,1.374,0.56c0.476,0.265,0.959,0.628,1.45,1.092V161.056z M327.996,160.063h-9.85v17.358h10.079v-2.239
	h-7.586v-5.396h7.103v-2.241h-7.103v-5.243h7.356V160.063z M305.674,160.063h-2.493v17.358h10.335v-2.239h-7.842V160.063z
	 M290.148,163.778l2.801,6.287h-5.396L290.148,163.778z M291.064,159.96h-1.757l-7.458,17.461h2.546l2.189-5.115h7.382l2.315,5.115
	h2.546L291.064,159.96z M277.447,160.063h-2.495v17.358h2.495V160.063z M259.63,162.199h1.604c0.801,0,1.455,0.106,1.956,0.319
	c0.496,0.207,0.865,0.509,1.099,0.898c0.233,0.391,0.353,0.857,0.356,1.404c0.008,0.365-0.039,0.717-0.145,1.052
	c-0.11,0.341-0.293,0.642-0.547,0.904c-0.259,0.268-0.611,0.476-1.058,0.632c-0.439,0.156-0.996,0.233-1.662,0.237h-1.604V162.199z
	 M257.136,160.063v17.358h2.494v-7.533h1.044c0.255-0.005,0.501,0.021,0.747,0.072c0.246,0.05,0.501,0.147,0.764,0.297
	c0.264,0.151,0.548,0.372,0.852,0.666c0.307,0.288,0.643,0.674,1.01,1.153c0.366,0.479,0.781,1.073,1.236,1.782l2.29,3.563h2.979
	c-0.298-0.411-0.552-0.763-0.772-1.069c-0.217-0.301-0.412-0.571-0.581-0.822c-0.174-0.245-0.34-0.492-0.501-0.733
	c-0.161-0.247-0.331-0.518-0.513-0.811c-0.438-0.722-0.849-1.379-1.239-1.978c-0.394-0.597-0.798-1.132-1.218-1.604
	c-0.424-0.471-0.891-0.883-1.413-1.229c0.934-0.373,1.651-0.925,2.147-1.65c0.501-0.722,0.751-1.591,0.755-2.6
	c-0.004-1.007-0.237-1.871-0.695-2.598c-0.462-0.725-1.115-1.281-1.964-1.671c-0.854-0.391-1.867-0.59-3.042-0.594H257.136z
	 M251.741,160.063h-9.851v17.358h10.079v-2.239h-7.585v-5.396h7.102v-2.241h-7.102v-5.243h7.356V160.063z M237.081,160.063h-14.51
	v2.239h6.008v15.119h2.493v-15.119h6.009V160.063z M213.535,163.778l2.801,6.287h-5.396L213.535,163.778z M214.452,159.96h-1.756
	l-7.458,17.461h2.545l2.189-5.115h7.382l2.315,5.115h2.546L214.452,159.96z M200.937,160.063h-2.315l-5.779,7.126l-5.752-7.126
	h-2.341v17.358h2.493v-13.516h0.051l5.346,6.72h0.407l5.346-6.72h0.05v13.516h2.495V160.063z"/>
<path fill-rule="evenodd" clip-rule="evenodd" fill="#4E474B" d="M473.998,124.363h0.004v4.577h-0.004
	c0.015,0.623,0.123,1.216,0.325,1.772c0.202,0.561,0.504,1.092,0.901,1.589c0.402,0.506,0.879,0.963,1.426,1.365
	c0.553,0.406,1.185,0.762,1.89,1.065c0.707,0.304,1.463,0.535,2.263,0.691c0.811,0.159,1.667,0.244,2.563,0.255v-0.003h28.617
	c0.188,0,0.359-0.026,0.509-0.073v0.003c0.133-0.043,0.251-0.104,0.352-0.18c0.085-0.083,0.152-0.17,0.195-0.26
	c0.039-0.082,0.062-0.176,0.062-0.285v-18.387c-0.31,0.207-0.651,0.388-1.019,0.537l-0.007,0.002c-0.42,0.166-0.856,0.3-1.313,0.398
	c-0.45,0.096-0.927,0.163-1.438,0.195l-0.035,0.003h-25.923v-0.003c-0.896,0.011-1.753,0.096-2.563,0.254
	c-0.8,0.156-1.556,0.388-2.263,0.691c-0.705,0.305-1.336,0.66-1.89,1.066c-0.547,0.402-1.022,0.857-1.426,1.364
	c-0.397,0.498-0.699,1.028-0.901,1.589C474.121,123.15,474.013,123.742,473.998,124.363 M468.217,84.205h35.35
	c1.729,0,3.405,0.094,5.03,0.283c1.624,0.188,3.191,0.472,4.701,0.848l0.002,0.002c1.52,0.39,2.937,0.863,4.256,1.426
	c1.328,0.568,2.565,1.229,3.716,1.99c1.159,0.758,2.197,1.607,3.107,2.544c0.908,0.939,1.691,1.969,2.344,3.088l0.003,0.004
	c0.643,1.129,1.133,2.342,1.464,3.638c0.328,1.287,0.502,2.669,0.516,4.143l0.004,0.004V142.8l-0.004,0.013
	c-0.015,0.657-0.178,1.264-0.478,1.808c-0.299,0.545-0.735,1.027-1.294,1.438s-1.193,0.725-1.899,0.937
	c-0.686,0.206-1.445,0.316-2.271,0.327l-0.007,0.003h-1.852h-7.406h-30.132l-0.003-0.003c-1.744-0.011-3.427-0.137-5.043-0.375
	c-1.628-0.242-3.201-0.6-4.717-1.071l0.001-0.002c-1.521-0.464-2.937-1.027-4.255-1.683c-1.329-0.658-2.564-1.414-3.711-2.257
	c-1.147-0.843-2.171-1.756-3.073-2.74c-0.903-0.986-1.679-2.041-2.328-3.164c-0.653-1.134-1.149-2.313-1.485-3.537
	c-0.336-1.222-0.512-2.487-0.525-3.794l-0.002-0.006v-3.834l0.002-0.006c0.029-2.615,0.7-5.06,2.011-7.33
	c0.649-1.125,1.425-2.179,2.328-3.166c0.902-0.982,1.926-1.896,3.073-2.74c1.146-0.843,2.382-1.598,3.711-2.258
	c1.318-0.654,2.734-1.217,4.255-1.681l-0.001-0.001c1.515-0.473,3.088-0.83,4.715-1.072c1.618-0.239,3.301-0.365,5.045-0.375
	l0.003-0.003h28.448v0.002c0.206-0.009,0.392-0.038,0.556-0.089c0.156-0.047,0.298-0.118,0.429-0.215
	c0.104-0.076,0.187-0.163,0.236-0.255l0.001,0.001c0.04-0.076,0.064-0.163,0.064-0.259v-3.114c0-0.622-0.089-1.214-0.262-1.77
	c-0.177-0.564-0.439-1.099-0.784-1.597h-0.001c-0.361-0.511-0.801-0.973-1.323-1.38c-0.528-0.413-1.149-0.776-1.863-1.087
	l-0.009-0.005c-0.701-0.32-1.492-0.56-2.368-0.721c-0.889-0.164-1.867-0.249-2.924-0.258v0.002h-33.498l-0.021-0.002
	c-0.315-0.013-0.602-0.057-0.866-0.139c-0.28-0.085-0.532-0.211-0.766-0.383c-0.232-0.17-0.422-0.378-0.553-0.614l-0.002,0.001
	c-0.135-0.242-0.209-0.508-0.209-0.79V84.77v-0.565H468.217z M436.854,130.942c0.198-0.56,0.302-1.15,0.315-1.774h-0.003v-26.807
	h0.003c-0.014-0.623-0.117-1.215-0.316-1.774s-0.497-1.087-0.902-1.58l-0.009-0.011c-0.402-0.515-0.878-0.975-1.427-1.381
	c-0.551-0.407-1.18-0.762-1.887-1.066h0.001c-0.705-0.303-1.461-0.534-2.264-0.691c-0.811-0.158-1.668-0.244-2.563-0.255v0.003
	h-22.726c-1.038,0.1-1.99,0.312-2.854,0.629c-0.879,0.324-1.665,0.757-2.354,1.293c-0.688,0.535-1.226,1.126-1.606,1.775v0.002
	c-0.374,0.634-0.607,1.332-0.699,2.094v33.853c0,0.08,0.02,0.15,0.055,0.21c0.042,0.07,0.114,0.136,0.208,0.195l0.003,0.002
	c0.138,0.085,0.285,0.151,0.443,0.195l0.001-0.002c0.168,0.045,0.359,0.07,0.576,0.07h28.954v0.003
	c0.895-0.011,1.752-0.095,2.563-0.254c0.8-0.157,1.555-0.388,2.263-0.692c0.707-0.304,1.336-0.659,1.887-1.064
	c0.549-0.407,1.024-0.867,1.427-1.382l0.009-0.012C436.354,132.03,436.653,131.502,436.854,130.942L436.854,130.942z
	 M408.443,84.205h19.359l0.001,0.002c1.73,0.01,3.4,0.136,5.004,0.376c1.614,0.241,3.173,0.599,4.673,1.072l-0.001,0.001
	c1.51,0.46,2.926,1.019,4.244,1.668c1.344,0.663,2.594,1.422,3.749,2.27c1.144,0.841,2.173,1.757,3.083,2.741
	c0.915,0.988,1.705,2.043,2.37,3.158l0.004,0.006c0.655,1.134,1.15,2.315,1.486,3.541c0.336,1.223,0.512,2.494,0.525,3.811
	l0.002,0.004v25.819l-0.002,0.004c-0.015,1.31-0.191,2.583-0.527,3.81c-0.336,1.225-0.832,2.402-1.484,3.521l-0.002,0.005
	c-0.665,1.126-1.454,2.185-2.364,3.173c-0.908,0.984-1.94,1.902-3.091,2.748c-1.147,0.843-2.391,1.593-3.725,2.25
	c-1.33,0.654-2.755,1.218-4.268,1.691c-1.5,0.472-3.059,0.829-4.673,1.071c-1.604,0.238-3.273,0.364-5.004,0.375l-0.001,0.003
	h-40.064l-0.007-0.003c-0.828-0.011-1.59-0.121-2.272-0.328c-0.703-0.213-1.331-0.527-1.877-0.94v-0.001
	c-0.567-0.408-1.006-0.885-1.307-1.422c-0.306-0.547-0.471-1.157-0.488-1.818l-0.002-0.013V53.839v-0.566h0.566h12.794
	c0.3,0,0.591,0.044,0.863,0.127c0.284,0.086,0.542,0.214,0.761,0.375c0.246,0.181,0.432,0.385,0.563,0.616
	c0.135,0.235,0.208,0.491,0.229,0.769l0.002,0.04v32.264c0.323-0.251,0.674-0.492,1.052-0.722c0.78-0.474,1.682-0.907,2.696-1.301
	l0.003-0.003c1.027-0.393,2.136-0.692,3.328-0.897c1.177-0.202,2.44-0.314,3.795-0.334L408.443,84.205z M357.621,53.273h12.793
	c0.307,0,0.598,0.044,0.864,0.124V53.4c0.284,0.086,0.541,0.214,0.761,0.375c0.246,0.181,0.433,0.385,0.564,0.616
	c0.134,0.236,0.207,0.49,0.227,0.767l0.002,0.042v91.559v0.566h-0.565h-12.793l-0.022-0.003c-0.309-0.013-0.604-0.06-0.878-0.146
	c-0.264-0.084-0.506-0.205-0.716-0.367c-0.242-0.166-0.425-0.364-0.557-0.588l-0.001,0.001c-0.145-0.243-0.222-0.507-0.241-0.782
	l-0.003-0.042V53.839v-0.566H357.621z M328.069,95.916c-1.175-0.289-2.563-0.433-4.161-0.433h-23.062
	c-0.919,0-1.78,0.064-2.583,0.192c-0.808,0.127-1.566,0.32-2.276,0.577c-0.697,0.251-1.322,0.565-1.869,0.941l-0.002,0.002
	c-0.542,0.372-1.013,0.808-1.412,1.311c-0.393,0.493-0.691,1.049-0.894,1.669c-0.208,0.632-0.318,1.332-0.331,2.103h0.002v6.723
	c0,0.105,0.021,0.195,0.055,0.268c0.04,0.082,0.104,0.156,0.183,0.22c0.104,0.084,0.231,0.152,0.38,0.205h0.002
	c0.154,0.056,0.333,0.097,0.53,0.123h39.188c0.21,0,0.394-0.027,0.55-0.078c0.156-0.05,0.301-0.126,0.435-0.224
	c0.105-0.078,0.188-0.164,0.236-0.254v-0.002c0.042-0.076,0.065-0.163,0.065-0.258v-6.723c0-1.169-0.182-2.184-0.549-3.036
	l0.001-0.001c-0.358-0.83-0.901-1.517-1.633-2.054l-0.005-0.005C330.17,96.621,329.221,96.199,328.069,95.916 M344.444,147.325
	h-43.598l-0.002-0.003c-1.744-0.011-3.427-0.137-5.044-0.375c-1.628-0.242-3.201-0.6-4.716-1.071l0.001-0.002
	c-1.521-0.464-2.938-1.027-4.258-1.683c-1.326-0.658-2.562-1.414-3.71-2.257c-1.146-0.843-2.17-1.756-3.073-2.74
	c-0.903-0.986-1.678-2.042-2.328-3.164c-0.653-1.134-1.15-2.313-1.485-3.537c-0.335-1.222-0.512-2.487-0.526-3.794l-0.002-0.006
	v-26.292l0.002-0.005c0.014-1.494,0.189-2.902,0.522-4.215c0.335-1.32,0.832-2.554,1.488-3.689v-0.001
	c0.652-1.141,1.43-2.188,2.335-3.143c0.902-0.951,1.932-1.808,3.09-2.574c1.149-0.761,2.387-1.427,3.716-1.998
	c1.323-0.568,2.742-1.042,4.26-1.42v0.001c1.517-0.389,3.084-0.677,4.7-0.868c1.625-0.191,3.302-0.285,5.029-0.285h22.556
	c1.729,0,3.406,0.094,5.03,0.285c1.617,0.191,3.185,0.479,4.701,0.868v-0.001c1.516,0.378,2.935,0.852,4.259,1.42
	c1.33,0.571,2.567,1.237,3.717,1.998c1.157,0.765,2.193,1.622,3.103,2.574c0.911,0.953,1.697,2.001,2.351,3.143v0.004
	c0.645,1.143,1.136,2.379,1.466,3.699c0.326,1.309,0.501,2.713,0.515,4.202l0.003,0.005v14.29h-0.002
	c0.013,0.369,0,0.728-0.039,1.061c-0.042,0.363-0.114,0.707-0.208,1.02l-0.008,0.021c-0.12,0.356-0.305,0.684-0.559,0.973
	c-0.253,0.287-0.568,0.534-0.954,0.731l-0.001-0.002c-0.36,0.201-0.812,0.348-1.352,0.445v0.002c-0.509,0.09-1.116,0.139-1.813,0.15
	l-0.009,0.002H297.48c-0.699,0-1.385-0.055-2.046-0.164c-0.662-0.109-1.291-0.273-1.88-0.488c-0.598-0.22-1.152-0.486-1.66-0.797
	c-0.141-0.086-0.279-0.176-0.413-0.269v9.813h-0.002c0.013,0.622,0.122,1.214,0.324,1.772c0.203,0.561,0.504,1.091,0.9,1.589
	c0.402,0.506,0.88,0.962,1.429,1.365c0.552,0.405,1.183,0.762,1.887,1.064c0.709,0.305,1.464,0.535,2.264,0.692
	c0.812,0.159,1.666,0.243,2.563,0.254v-0.003h41.746l0.021,0.003c0.315,0.011,0.604,0.056,0.868,0.137
	c0.279,0.087,0.533,0.213,0.764,0.383c0.233,0.172,0.421,0.379,0.554,0.614h0.003c0.135,0.243,0.209,0.509,0.209,0.79v8.909v0.566
	H344.444z M258.601,90.414c0.269-0.73,0.411-1.5,0.425-2.303h-0.003V73.883h0.003c-0.014-0.803-0.156-1.573-0.425-2.303
	c-0.269-0.737-0.668-1.435-1.191-2.087c-0.542-0.671-1.174-1.272-1.899-1.805c-0.733-0.537-1.56-1.008-2.487-1.413v-0.001
	c-0.915-0.395-1.896-0.698-2.939-0.904c-1.044-0.207-2.142-0.317-3.289-0.327v0.002h-43.429v-0.001
	c-0.42,0.01-0.795,0.063-1.123,0.163c-0.315,0.095-0.593,0.236-0.832,0.42c-0.23,0.177-0.399,0.37-0.507,0.574
	c-0.102,0.192-0.158,0.403-0.172,0.629h0.002v28.334h-0.002c0.014,0.215,0.073,0.415,0.181,0.599v0.002
	c0.117,0.201,0.298,0.393,0.543,0.573c0.262,0.192,0.554,0.342,0.871,0.443c0.319,0.102,0.667,0.16,1.039,0.169v-0.001h0.028h0.141
	h43.26v0.002c1.146-0.01,2.244-0.12,3.288-0.326c1.043-0.207,2.025-0.51,2.94-0.905v-0.001c0.927-0.405,1.754-0.875,2.487-1.412
	c0.725-0.534,1.357-1.135,1.899-1.806C257.933,91.849,258.332,91.151,258.601,90.414 M194.108,53.273h52.687l0.003,0.002
	c2.025,0.01,3.975,0.157,5.848,0.438c1.888,0.283,3.707,0.702,5.458,1.256c1.754,0.556,3.403,1.217,4.946,1.985l-0.001,0.001
	c1.548,0.77,2.993,1.648,4.336,2.635c1.333,0.98,2.528,2.045,3.579,3.193c1.044,1.141,1.944,2.364,2.692,3.664
	c0.753,1.311,1.327,2.664,1.714,4.063c0.388,1.4,0.592,2.853,0.605,4.358l0.003,0.004v12.249l-0.003,0.005
	c-0.013,1.491-0.216,2.94-0.602,4.34h-0.001c-0.388,1.407-0.962,2.769-1.716,4.081v0.003c-0.75,1.293-1.654,2.52-2.709,3.672
	c-1.046,1.143-2.237,2.208-3.562,3.182c-1.343,0.987-2.788,1.865-4.336,2.635l0.001,0.001c-1.544,0.768-3.193,1.429-4.946,1.985
	c-1.751,0.554-3.57,0.973-5.458,1.256c-1.873,0.281-3.823,0.428-5.848,0.438l-0.003,0.003h-36.864l-0.004-0.003
	c-0.915-0.01-1.776-0.074-2.587-0.19c-0.814-0.116-1.593-0.289-2.341-0.515v0.002c-0.741-0.224-1.412-0.492-2.015-0.799
	c-0.623-0.317-1.176-0.679-1.661-1.079l-0.006-0.007c-0.214-0.183-0.409-0.371-0.583-0.567v39.586l-0.003,0.033
	c-0.018,0.313-0.098,0.601-0.245,0.863h-0.001c-0.145,0.26-0.353,0.49-0.628,0.693c-0.262,0.192-0.552,0.335-0.87,0.432
	l-0.001-0.002c-0.303,0.092-0.633,0.141-0.988,0.152l-0.018,0.003h-13.635h-0.565v-0.566V61.015l0.001-0.011
	c0.016-0.734,0.148-1.432,0.393-2.094c0.246-0.66,0.604-1.284,1.075-1.876l0.005-0.005c0.465-0.572,1.004-1.09,1.62-1.548
	c0.612-0.454,1.301-0.854,2.072-1.19l0.008-0.004c0.777-0.324,1.593-0.573,2.451-0.742c0.848-0.168,1.747-0.26,2.699-0.27
	L194.108,53.273z"/>
<path fill-rule="evenodd" clip-rule="evenodd" fill="#00AD57" d="M78.296,56.988c8.396-3.551,17.7-4.596,26.703-2.963
	c-10.669,2.07-20.375,7.699-27.141,16.698c-11.46,15.24-11.292,35.885-1.292,52.488c-1.623-1.98-3.141-4.063-4.527-6.267
	c-4.271-6.785-7.296-14.711-8.292-24.231c-0.615-5.883-0.361-14.865,2.841-22.653c2.229-5.427,5.898-10.274,11.714-13.059
	L78.296,56.988z M104.259,146.366c-12.196,2.021-25.169-0.759-35.828-8.776c-20.683-15.551-24.844-44.936-9.291-65.619
	c3.009-4.002,6.537-7.384,10.419-10.125c-1.891,2.287-3.355,4.875-4.475,7.597c-3.322,8.083-3.59,17.364-2.955,23.436
	c1.025,9.794,4.139,17.95,8.534,24.932c5.137,8.163,12.383,15.259,20.081,21.049C95.006,142.064,99.565,144.563,104.259,146.366"/>
<path fill-rule="evenodd" clip-rule="evenodd" fill="#645589" d="M142.46,143.353c-8.396,3.552-17.701,4.597-26.703,2.964
	c10.669-2.07,20.374-7.698,27.141-16.698c11.46-15.24,11.292-35.887,1.292-52.488c1.622,1.979,3.141,4.063,4.527,6.267
	c4.27,6.784,7.294,14.71,8.291,24.231c0.616,5.884,0.361,14.864-2.841,22.654c-2.229,5.426-5.899,10.273-11.715,13.057
	L142.46,143.353z M116.497,53.976c12.198-2.021,25.168,0.758,35.828,8.774c20.682,15.553,24.844,44.938,9.291,65.621
	c-3.009,4.002-6.537,7.384-10.418,10.126c1.89-2.287,3.354-4.874,4.475-7.597c3.321-8.083,3.59-17.365,2.955-23.437
	c-1.024-9.794-4.138-17.949-8.533-24.932c-5.137-8.163-12.383-15.257-20.08-21.048C125.75,58.276,121.19,55.78,116.497,53.976"/>
</svg>
